<svg id="SvgjsSvg1001" width="288" height="288" xmlns="http://www.w3.org/2000/svg" version="1.1" xmlns:xlink="http://www.w3.org/1999/xlink" xmlns:svgjs="http://svgjs.com/svgjs"><defs id="SvgjsDefs1002"></defs><g id="SvgjsG1008" transform="matrix(0.9167,0,0,0.9167,11.995200000000011,11.995200000000011)"><svg xmlns="http://www.w3.org/2000/svg" enable-background="new 0 0 512 512" viewBox="0 0 512 512" width="288" height="288"><path fill="#000000" d="M256,0C114.833,0,0,114.833,0,256s114.833,256,256,256s256-114.853,256-256S397.167,0,256,0z M256,472.341
			c-119.275,0-216.341-97.046-216.341-216.341S136.725,39.659,256,39.659S472.341,136.705,472.341,256S375.295,472.341,256,472.341z
			" class="colorfff svgShape"></path><path fill="#000000" d="M355.148,234.386H275.83v-79.318c0-10.946-8.864-19.83-19.83-19.83s-19.83,8.884-19.83,19.83v79.318h-79.318
			c-10.966,0-19.83,8.884-19.83,19.83s8.864,19.83,19.83,19.83h79.318v79.318c0,10.946,8.864,19.83,19.83,19.83
			s19.83-8.884,19.83-19.83v-79.318h79.318c10.966,0,19.83-8.884,19.83-19.83S366.114,234.386,355.148,234.386z" class="colorfff svgShape"></path></svg></g></svg>